<svg width="1140" height="380" viewBox="0 0 1140 380" fill="none" xmlns="http://www.w3.org/2000/svg">
<g clip-path="url(#clip0_17_2)">
<path d="M1090 70H1040V0H930.2L879.7 70H790L760 100V70H690V0H470V70H160.5L110 0H0V240L140 380H280V340L320 380H590V340L630 380H760V340L800 380H1050L1140 290V120L1090 70ZM170 170H100V190H170V270H60L20 230V20H100V90H170V170ZM470 270H230L190 230V90H270V190H290V90H370V190H390V90H470V270ZM570 270H490V90H570V270ZM570 70H490V20H570V70ZM740 170H670V190H740V270H630L590 230V20H670V90H740V170ZM920 170H840V190H920V270H800L760 230V130L800 90H920V170ZM1120 270H1040V170H1020V270H940V20H1020V90H1080L1120 130V270Z" fill="#9146FF"/>
<path d="M170 170H100V190H170V270H60L20 230V20H100V90H170V170Z" fill="white"/>
<path d="M470 270H230L190 230V90H270V190H290V90H370V190H390V90H470V270Z" fill="white"/>
<path d="M570 90H490V270H570V90Z" fill="white"/>
<path d="M570 20H490V70H570V20Z" fill="white"/>
<path d="M740 170H670V190H740V270H630L590 230V20H670V90H740V170Z" fill="white"/>
<path d="M920 170H840V190H920V270H800L760 230V130L800 90H920V170Z" fill="white"/>
<path d="M1120 270H1040V170H1020V270H940V20H1020V90H1080L1120 130V270Z" fill="white"/>
</g>
<defs>
<clipPath id="clip0_17_2">
<rect width="1140" height="380" fill="white"/>
</clipPath>
</defs>
</svg>
