<svg width="21" height="9" viewBox="0 0 21 9" fill="none" xmlns="http://www.w3.org/2000/svg">
<path d="M0.625953 5.12605L13.9463 5.12605L13.9463 8.37375C13.9463 8.60876 14.0773 8.82322 14.2857 8.93025C14.4941 9.03814 14.7448 9.0198 14.9366 8.88264L20.3591 5.00895C20.5242 4.89189 20.6221 4.70144 20.6221 4.49963C20.6221 4.29782 20.5242 4.10781 20.3595 3.99031L14.937 0.117069C14.8287 0.0393165 14.7015 -2.58795e-07 14.5731 -2.64408e-07C14.4753 -2.68685e-07 14.377 0.023151 14.2861 0.0694527C14.0778 0.176471 13.9467 0.391817 13.9467 0.625954L13.9467 3.87365L0.626388 3.87365C0.280876 3.87365 -1.81581e-07 4.15408 -1.96703e-07 4.50004C0.000436572 4.84556 0.280429 5.12605 0.625953 5.12605ZM15.1987 1.84302L18.9178 4.50018L15.1987 7.15733L15.1987 1.84302Z" fill="white"/>
</svg>
