<svg width="180" height="73" viewBox="0 0 180 73" fill="none" xmlns="http://www.w3.org/2000/svg">
<g clip-path="url(#clip0_4_1446)">
<path d="M0 50.9439H23.1625V73H43.5769V50.9439H66.7394V30.6444H0V50.9439Z" fill="white"/>
<path d="M66.7394 0.19519H0V20.4947H66.7394V0.19519Z" fill="white"/>
<path d="M103.053 6.24599C103.053 5.66043 103.053 5.27005 103.053 5.07487C103.053 4.68449 103.053 4.48931 102.857 4.29412C102.857 4.09893 102.661 4.09893 102.661 3.90374C102.465 3.90374 102.465 3.90374 102.268 3.90374C102.072 3.90374 101.876 3.90374 101.876 3.90374C101.679 3.90374 101.679 4.09893 101.483 4.29412C101.483 4.48931 101.287 4.68449 101.287 5.07487C101.287 5.46524 101.287 5.85562 101.287 6.24599V14.8342C101.287 15.4198 101.287 15.8102 101.287 16.0053C101.287 16.3957 101.287 16.5909 101.483 16.7861C101.679 16.9813 101.679 17.1765 101.876 17.1765C102.072 17.1765 102.072 17.1765 102.268 17.1765C102.465 17.1765 102.661 17.1765 102.661 17.1765C102.857 17.1765 102.857 16.9813 103.053 16.7861C103.053 16.5909 103.25 16.3957 103.25 16.0053C103.25 15.615 103.25 15.2246 103.25 14.8342V6.24599H103.053ZM102.072 0C104.035 0 105.605 0.585562 106.587 1.5615C107.568 2.53743 107.961 4.09893 107.961 6.24599V14.8342C107.961 16.7861 107.568 18.3476 106.587 19.5187C105.605 20.4947 104.035 21.0802 102.072 21.0802C100.109 21.0802 98.5387 20.4947 97.5573 19.5187C96.5758 18.1524 96.1832 16.7861 96.1832 14.639V6.24599C96.1832 4.29412 96.5758 2.73262 97.5573 1.5615C98.5387 0.585562 100.109 0 102.072 0Z" fill="white"/>
<path d="M122.683 0.19519V14.639C122.683 16.7861 122.094 18.3476 121.112 19.3235C120.131 20.2995 118.561 20.885 116.794 20.885C114.831 20.885 113.457 20.4947 112.475 19.5187C111.494 18.5428 110.905 16.9813 110.905 15.0294V0.19519H115.812V14.8342C115.812 15.615 115.812 16.2005 116.009 16.3957C116.205 16.5909 116.401 16.7861 116.794 16.7861C117.186 16.7861 117.383 16.5909 117.579 16.3957C117.775 16.2005 117.775 15.615 117.775 14.8342V0.19519H122.683Z" fill="white"/>
<path d="M130.338 0C131.123 0 131.908 0.195187 132.497 0.390374C133.086 0.585562 133.675 0.975936 134.068 1.36631C134.46 1.75668 134.853 2.34225 135.049 2.92781C135.245 3.51337 135.638 4.29412 135.834 4.87968L132.301 5.85561C132.301 5.46524 132.105 5.07487 132.105 4.68449C131.908 4.48931 131.908 4.09893 131.712 4.09893C131.516 3.90374 131.516 3.90374 131.32 3.70856C131.123 3.70856 131.123 3.70856 130.927 3.70856C130.338 3.70856 130.142 4.29412 130.142 5.27005C130.142 5.85562 130.338 6.24599 130.534 6.63636C130.731 7.02674 131.123 7.41711 131.516 7.80749C131.908 8.19786 132.497 8.58823 132.89 9.1738C133.479 9.56417 133.871 10.1497 134.264 10.7353C134.656 11.3209 135.049 11.9064 135.442 12.6872C135.834 13.4679 135.834 14.2487 135.834 15.2246C135.834 16.9813 135.442 18.5428 134.46 19.5187C133.479 20.4947 132.105 21.0802 130.338 21.0802C128.964 21.0802 127.786 20.6898 126.609 19.7139C125.627 18.738 124.842 17.5668 124.842 15.8102L128.768 15.0294C128.768 15.615 128.964 16.0053 129.16 16.2005C129.357 16.3957 129.553 16.5909 129.553 16.7861C129.749 16.9813 129.749 17.1765 129.945 17.1765C130.142 17.1765 130.142 17.1765 130.338 17.1765C130.927 17.1765 131.123 16.7861 131.123 15.8102C131.123 15.2246 130.927 14.4438 130.731 14.0535C130.338 13.4679 130.142 13.0775 129.553 12.492C129.16 12.1016 128.571 11.516 128.179 11.1257C127.59 10.7353 127.197 10.1497 126.805 9.75936C126.216 9.1738 125.823 8.58823 125.627 7.80749C125.431 7.02674 125.234 6.24599 125.234 5.46524C125.234 4.68449 125.431 4.09893 125.627 3.31818C125.823 2.73262 126.216 2.14706 126.609 1.5615C127.001 0.975936 127.59 0.585562 128.179 0.390374C128.768 0.195187 129.553 0 130.338 0Z" fill="white"/>
<path d="M86.5649 0.19519V8.00268H88.1352V0.19519H93.2388V20.4947H88.1352V11.9064H86.5649V20.4947H81.4613V0.19519H86.5649Z" fill="white"/>
<path d="M162.726 6.24599C162.726 5.66043 162.726 5.27005 162.726 5.07487C162.726 4.68449 162.726 4.48931 162.53 4.29412C162.53 4.09893 162.334 4.09893 162.334 3.90374C162.137 3.90374 162.137 3.90374 161.941 3.90374C161.745 3.90374 161.549 3.90374 161.549 3.90374C161.352 3.90374 161.352 4.09893 161.156 4.29412C161.156 4.48931 160.96 4.68449 160.96 5.07487C160.96 5.46524 160.96 5.85562 160.96 6.24599V14.8342C160.96 15.4198 160.96 15.8102 160.96 16.0053C160.96 16.3957 160.96 16.5909 161.156 16.7861C161.156 16.9813 161.352 17.1765 161.549 17.1765C161.745 17.1765 161.745 17.1765 161.941 17.1765C162.137 17.1765 162.334 17.1765 162.334 17.1765C162.53 17.1765 162.53 16.9813 162.726 16.7861C162.726 16.5909 162.923 16.3957 162.923 16.0053C162.923 15.615 162.923 15.2246 162.923 14.8342V6.24599H162.726ZM161.745 0C163.708 0 165.278 0.585562 166.26 1.5615C167.241 2.53743 167.634 4.09893 167.634 6.24599V14.8342C167.634 16.7861 167.241 18.3476 166.26 19.5187C165.278 20.4947 163.708 21.0802 161.745 21.0802C159.782 21.0802 158.212 20.4947 157.23 19.5187C156.249 18.5428 155.856 16.9813 155.856 14.8342V6.24599C155.856 4.29412 156.249 2.73262 157.23 1.5615C158.212 0.585562 159.782 0 161.745 0Z" fill="white"/>
<path d="M148.004 0.19519V4.09893H143.49V8.39305H146.63V11.7112H143.49V16.7861H148.004V20.4947H138.582V0.19519H148.004Z" fill="white"/>
<path d="M180 0.19519V4.09893H175.485V8.58824H179.607V12.2968H175.485V20.4947H170.578V0.19519H180Z" fill="white"/>
<path d="M91.4722 30.6444V34.5482H88.7241V50.9439H83.6205V34.5482H80.8724V30.6444H91.4722Z" fill="white"/>
<path d="M97.5573 43.5268H99.3239L98.5387 36.3048L97.5573 43.5268ZM96.7721 50.9439H91.8648L95.5943 30.6444H101.483L105.213 50.9439H100.109L99.7165 46.8449H97.1647L96.7721 50.9439Z" fill="white"/>
<path d="M112.475 30.6444V47.0401H116.794V50.9439H107.568V30.6444H112.475Z" fill="white"/>
<path d="M127.983 30.6444V34.5482H123.664V38.6471H126.805V42.1605H123.664V47.0401H127.983V50.9439H118.561V30.6444H127.983Z" fill="white"/>
<path d="M134.264 30.6444L137.993 39.0375H138.19V30.6444H142.508V50.9439H139.171L135.245 41.7701H135.049V50.9439H130.731V30.6444H134.264Z" fill="white"/>
<path d="M162.923 30.4492C163.708 30.4492 164.493 30.6444 165.082 30.8396C165.671 31.0348 166.26 31.4252 166.652 31.8155C167.045 32.2059 167.437 32.7915 167.83 33.377C168.026 33.9626 168.419 34.7433 168.615 35.3289L164.886 36.3048C164.886 35.9145 164.689 35.5241 164.689 35.1337C164.493 34.9385 164.493 34.5482 164.297 34.5482C164.1 34.353 164.1 34.353 163.904 34.1578C163.708 34.1578 163.708 34.1578 163.511 34.1578C162.923 34.1578 162.726 34.7433 162.726 35.7193C162.726 36.3048 162.923 36.6952 163.119 37.0856C163.315 37.476 163.708 37.8663 164.297 38.2567C164.689 38.6471 165.278 39.0375 165.671 39.623C166.26 40.0134 166.652 40.599 167.045 41.1845C167.437 41.7701 167.83 42.3556 168.222 43.1364C168.615 43.9171 168.615 44.6979 168.615 45.6738C168.615 47.4305 168.222 48.992 167.241 49.9679C166.26 50.9439 164.886 51.5294 163.119 51.5294C161.745 51.5294 160.567 51.1391 159.389 50.1631C158.408 49.1872 157.623 48.0161 157.623 46.2594L161.549 45.4786C161.549 46.0642 161.745 46.4546 161.941 46.6498C162.137 47.0401 162.137 47.2353 162.334 47.4305C162.53 47.6257 162.53 47.8209 162.726 47.8209C162.923 47.8209 162.923 47.8209 163.119 47.8209C163.708 47.8209 163.904 47.4305 163.904 46.4546C163.904 45.869 163.708 45.0883 163.511 44.6979C163.119 44.1123 162.726 43.7219 162.334 43.1364C161.941 42.746 161.352 42.1604 160.96 41.7701C160.371 41.3797 159.978 40.7941 159.586 40.2086C159.193 39.623 158.8 39.0375 158.408 38.4519C158.015 37.8663 158.015 36.8904 158.015 36.1096C158.015 35.3289 158.212 34.7433 158.408 33.9626C158.604 33.377 158.997 32.7915 159.389 32.2059C159.782 31.6203 160.371 31.23 160.96 31.0348C161.352 30.4492 162.137 30.4492 162.923 30.4492Z" fill="white"/>
<path d="M155.66 30.6444V34.5482H152.912V50.9439H147.808V34.5482H145.06V30.6444H155.66Z" fill="white"/>
</g>
<defs>
<clipPath id="clip0_4_1446">
<rect width="180" height="73" fill="white"/>
</clipPath>
</defs>
</svg>
