<svg width="232" height="74" viewBox="0 0 232 74" fill="none" xmlns="http://www.w3.org/2000/svg">
<path d="M33.8934 51.857V72.7762H27.7972V54.3901C27.7972 45.4105 23.971 42.0235 18.4458 42.0235C9.87964 42.0235 6.53884 49.452 6.53884 54.5324V72.7762H0.442596V19.7666H6.53884V43.2189C8.20486 41.0839 10.3342 39.3525 12.7673 38.1547C15.2003 36.9569 17.8738 36.3238 20.5873 36.3028C28.8537 36.3028 33.8934 41.7389 33.8934 51.857Z" fill="#2C2E4F"/>
<path d="M76.3387 56.7951H45.4006C45.6148 63.2986 50.626 68.0232 58.2498 68.0232C60.5627 68.1508 62.8644 67.6206 64.8865 66.4944C66.9087 65.3682 68.5681 63.6923 69.6714 61.662L75.2822 62.3594C73.8545 67.2405 68.0438 73.4594 58.2498 73.4594C46.9996 73.4594 39.0474 65.4617 39.0474 54.6463C39.0078 52.2053 39.4648 49.7817 40.3908 47.5216C41.3167 45.2615 42.6924 43.2118 44.4349 41.4962C46.1774 39.7806 48.2505 38.4347 50.5292 37.5397C52.8079 36.6447 55.2448 36.2191 57.693 36.2886C69.1146 36.2886 76.3387 45.1117 76.3387 55.2155V56.7951ZM45.4006 52.3978H70.014C69.6428 46.8051 65.0171 41.7247 57.7073 41.7247C50.6973 41.7247 45.6148 46.549 45.4006 52.3978Z" fill="#2C2E4F"/>
<path d="M88.8453 19.7522H82.7491V72.7618H88.8453V19.7522Z" fill="#2C2E4F"/>
<path d="M113.801 36.3028C116.806 36.2398 119.766 37.0376 122.33 38.6016C124.894 40.1655 126.953 42.4299 128.264 45.1259L128.549 37.0001H134.36V72.762H128.549L128.264 64.6362C126.953 67.3322 124.894 69.5966 122.33 71.1605C119.766 72.7245 116.806 73.5223 113.801 73.4593C111.375 73.443 108.976 72.9451 106.744 71.9947C104.512 71.0442 102.493 69.6602 100.804 67.9235C99.1147 66.1868 97.7894 64.1321 96.9055 61.8794C96.0215 59.6266 95.5966 57.221 95.6554 54.8028C95.6119 52.3961 96.0485 50.0047 96.9398 47.7676C97.8312 45.5305 99.1595 43.4922 100.848 41.771C102.536 40.0498 104.55 38.6801 106.774 37.7414C108.998 36.8027 111.386 36.3137 113.801 36.3028ZM114.729 67.7528C118.124 67.7133 121.365 66.3364 123.744 63.9228C126.124 61.5092 127.448 58.2551 127.428 54.8712C127.409 51.4874 126.046 48.2489 123.639 45.8632C121.231 43.4774 117.974 42.1383 114.579 42.1383C111.185 42.1383 107.928 43.4774 105.52 45.8632C103.113 48.2489 101.75 51.4874 101.73 54.8712C101.711 58.2551 103.035 61.5092 105.415 63.9228C107.794 66.3364 111.035 67.7133 114.43 67.7528H114.729Z" fill="#2C2E4F"/>
<path d="M176.891 51.857V72.7762H170.809V54.39C170.809 45.4104 166.969 42.0235 161.443 42.0235C152.877 42.0235 149.522 49.452 149.522 54.5324V72.7762H143.44V37H149.151L149.437 43.2189C151.125 41.0941 153.267 39.3708 155.707 38.1745C158.146 36.9782 160.823 36.3387 163.542 36.3027C171.837 36.3027 176.863 41.7389 176.863 51.857" fill="#2C2E4F"/>
<path d="M225.461 0.540771C225.45 8.41036 222.309 15.9544 216.726 21.519C211.143 27.0837 203.575 30.2149 195.68 30.2262V36.3027C205.195 36.3027 214.321 32.5349 221.049 25.8283C227.777 19.1216 231.557 10.0254 231.557 0.540771H225.461Z" fill="#2C2E4F"/>
</svg>
