<svg width="137" height="100" viewBox="0 0 137 100" fill="none" xmlns="http://www.w3.org/2000/svg">
<path d="M74.985 9.03345C70.7598 12.4101 66.7091 16.8804 64.3575 21.7716C59.5245 31.8246 62.2033 41.0645 64.275 47.0615C67.0958 55.227 72.8082 59.3501 79.6167 62.361C89.3239 66.6544 101.526 66.9433 112.606 64.0735C116.512 63.0621 122.576 60.9587 123.899 58.9964C125.332 56.8719 125.557 52.7634 122.479 50.9584C119.476 49.1984 119.185 50.5427 110.243 52.5341C104.019 53.92 97.223 54.1607 89.0606 50.6268C83.9127 48.3983 80.4293 44.9782 79.2393 40.3035C75.8258 26.8949 83.2003 21.9218 84.639 21.0125L74.985 9.03345Z" fill="url(#paint0_linear_5_617)"/>
<path d="M85.1571 24.8207C81.314 24.31 70.0403 23.1119 58.2457 21.0131C39.9938 17.7652 18.5359 13.2608 11.6848 12.7799C-1.49964 11.8548 -3.69807 29.0331 6.82701 31.9714C12.7879 33.6355 29.1909 31.8876 33.1782 39.7826C34.3927 42.1873 37.6054 51.2547 41.2447 62.4829C42.6714 66.8852 54.2748 66.1928 52.1172 56.8142C50.8854 51.4582 48.0801 36.992 48.0801 36.992C48.0801 36.992 81.3625 40.5319 84.0711 40.7667L85.1571 24.8207Z" fill="url(#paint1_linear_5_617)"/>
<path d="M102.683 15.9859C106.909 16.0985 114.264 17.1871 117.576 19.4094L136.045 23.0596C136.22 12.7789 130.598 7.24669 124.298 4.05742C119.517 1.63692 112.809 -0.334345 102.742 0.0965787C93.1154 0.508578 82.9943 2.62349 74.9219 9.07494L84.57 21.0744C89.1222 18.1979 94.843 15.7771 102.683 15.9859Z" fill="url(#paint2_linear_5_617)"/>
<path d="M117.281 19.2202C117.281 19.2202 118.254 19.845 118.676 20.2322C120.688 22.075 121.354 24.2771 115.251 25.2898L120.078 40.2589C131.061 37.3075 135.907 30.8083 136.042 22.8733L117.281 19.2202Z" fill="url(#paint3_linear_5_617)"/>
<path d="M115.434 25.264C110.024 26.1615 99.5353 26.7419 85.0742 24.8203L83.9882 40.7667C107.471 42.804 115.73 41.4145 120.261 40.1968L115.434 25.264Z" fill="url(#paint4_linear_5_617)"/>
<path d="M0.0547791 82.864C0.0547791 83.1463 0.276262 83.3635 0.54198 83.3635H4.97133V95.2274L7.89082 95.2379V83.3632H12.3205C12.5859 83.3632 12.8074 83.146 12.8074 82.864V81.0314C12.8074 80.7494 12.5859 80.5322 12.3202 80.5322H0.54198C0.275953 80.5322 0.0547791 80.7494 0.0547791 81.0317V82.864Z" fill="white"/>
<path d="M10.4425 89.8156C10.4425 92.941 13.0558 95.3717 16.2892 95.3717C19.545 95.3717 22.1582 92.941 22.1582 89.8156C22.1582 86.6688 19.545 84.1947 16.2892 84.1947C13.0558 84.1947 10.4428 86.6688 10.4428 89.8156H10.4425ZM13.676 89.7939C13.676 88.3181 14.8053 87.1029 16.2892 87.1029C17.7954 87.1029 18.9247 88.3181 18.9247 89.7939C18.9247 91.2697 17.7954 92.4635 16.2892 92.4635C14.8053 92.4635 13.676 91.2697 13.676 89.7939ZM24.0677 92.085C24.0677 94.494 25.9058 95.4707 27.7661 95.4707C29.0285 95.4707 30.3209 95.2954 31.1453 94.6647C32.4897 93.6359 31.3631 91.5458 29.5287 92.5811C28.9846 92.8882 28.0897 92.7319 27.9257 92.6649C27.5564 92.5147 26.9142 92.3881 26.9513 91.347V86.796H29.6583C31.7343 86.796 31.708 84.1702 29.6583 84.1702H26.9517V80.5754L24.0677 80.5652V84.1699H22.6504V86.7957H24.0677V92.085ZM32.2388 89.7722C32.2388 93.1795 34.8301 95.3717 37.6206 95.3717C39.0602 95.3717 40.5614 94.7636 41.0706 93.9393V95.386L43.7466 95.3757V85.5703C43.7466 83.6511 41.1256 83.7448 41.1256 85.4648C40.6162 84.6396 39.0822 84.1947 37.6425 84.1947C34.8523 84.1947 32.2388 86.3431 32.2388 89.7722ZM35.4722 89.7939C35.4722 88.3181 36.6019 87.1029 38.1078 87.1029C39.6139 87.1029 40.7433 88.3181 40.7433 89.7939C40.7433 91.2697 39.6139 92.4852 38.1078 92.4852C36.6019 92.4852 35.4722 91.2697 35.4722 89.7939ZM49.2871 95.2383V81.8306C49.2871 80.1305 46.2618 80.1854 46.2618 81.8306V95.2374L49.2871 95.2383ZM51.9062 80.3682C51.6185 80.3682 51.419 80.5853 51.419 80.8459V94.7326C51.419 95.0149 51.6182 95.2321 51.9062 95.2321H61.7004L61.7109 92.237H54.741V89.3968H60.2057C60.4933 89.3968 60.6929 89.1579 60.6929 88.8973V86.9878C60.6929 86.7054 60.4933 86.4883 60.2057 86.4883H54.741V83.3632H61.0378C61.3254 83.3632 61.5469 83.1461 61.5469 82.8641V80.8673C61.5469 80.585 61.3254 80.3682 61.0378 80.3682H51.9062ZM71.5746 94.7978C71.5746 95.0584 71.8184 95.2321 72.0618 95.2321H73.9713C74.2151 95.2321 74.4585 95.0584 74.4585 94.7978V88.9382C74.4585 86.3555 72.9734 84.0216 70.1164 84.0216C68.4333 84.0216 66.8093 84.5173 66.1671 85.2771C66.1671 83.7206 63.6328 83.653 63.6328 85.14V95.2451L66.4941 95.2557V89.2919C66.4941 85.6134 71.5746 86.2004 71.5746 89.2919V94.7978ZM94.9615 83.93C93.3854 83.93 92.0961 84.8673 91.4982 85.8008V85.0965C91.4982 83.7864 89.0968 83.6477 89.0968 85.1431V95.2011L91.9189 95.2377V90.11C91.9189 88.5663 92.952 86.8631 94.0625 86.6819L95.2068 86.4957C97.0294 86.4957 96.7367 83.93 94.9615 83.93ZM102.514 97.2856C101.052 97.2856 99.6562 97.2034 98.907 96.7861C97.1129 95.7868 96.0522 97.9818 97.1707 98.6295C98.6818 99.5044 99.4357 99.9353 102.27 99.9353C105.902 99.9353 107.872 97.9203 107.872 94.9684V85.14C107.872 83.8441 105.36 83.6942 105.36 84.9759V85.6488C104.829 84.8241 103.305 84.3588 101.844 84.3588C99.0533 84.3588 96.5282 86.4858 96.5282 89.8497C96.5282 93.2137 99.0308 95.2969 101.977 95.2969C103.394 95.2969 104.546 94.6895 105.033 93.9514V94.8604C105.033 96.2708 104.219 97.2856 102.514 97.2856ZM99.7617 89.8497C99.7617 88.3739 100.891 87.2235 102.375 87.2235C103.881 87.2235 105.011 88.3739 105.011 89.8497C105.011 91.347 103.881 92.4756 102.375 92.4756C100.891 92.4756 99.7617 91.347 99.7617 89.8497Z" fill="white"/>
<path d="M111.704 82.8754C112.648 82.8754 113.43 82.0679 113.43 81.1194C113.43 80.1506 112.648 79.343 111.704 79.343C110.741 79.343 109.958 80.1506 109.958 81.1194C109.958 82.0679 110.741 82.8754 111.704 82.8754ZM112.708 95.2317C112.949 95.2317 113.129 95.03 113.129 94.788V85.6825C113.129 83.7605 110.239 83.7611 110.239 85.6825V94.788C110.239 95.03 110.44 95.2317 110.681 95.2317H112.708Z" fill="white"/>
<path d="M120.643 84.0081C117.256 84.0081 114.817 86.6141 114.817 89.8496C114.817 93.0848 117.211 95.5788 120.688 95.5788C123.105 95.5788 124.535 94.8631 125.439 93.6947C125.989 92.7376 124.694 91.5686 123.539 92.2378C122.516 92.9327 121.818 92.8378 120.756 92.8378C119.469 92.8378 118.34 91.9614 118.182 90.591H125.397C125.849 90.591 125.962 90.3438 125.962 90.0742V89.4677C125.962 86.6591 124.121 84.0081 120.643 84.0081ZM123.082 88.5686H118.249C118.565 87.3556 119.559 86.6141 120.666 86.6141C121.727 86.6141 122.789 87.2432 123.082 88.5686Z" fill="white"/>
<path d="M131.847 83.9233C128.881 83.9233 127.042 85.5015 127.042 87.5085C127.042 89.2899 128.261 90.3946 130.077 90.7555L131.916 91.1386C132.974 91.3415 133.525 91.5671 133.525 92.1081C133.525 92.5818 133.02 93.0326 131.985 93.0326C130.882 93.0326 129.737 92.8269 129.024 92.2182C127.444 91.3955 126.041 93.1328 127.617 94.3179C128.537 94.9493 129.985 95.5356 131.87 95.5356C134.928 95.5356 136.928 93.9348 136.928 91.8152C136.928 89.7633 135.365 88.8614 133.457 88.5006L131.686 88.1625C130.744 87.9819 130.399 87.6887 130.399 87.2603C130.399 86.8095 130.973 86.4487 131.847 86.4487C132.79 86.4487 133.586 86.5455 134.275 86.9963C135.659 87.7979 137.078 86.0885 135.791 85.0104C135.101 84.4014 134.077 83.9233 131.847 83.9233Z" fill="white"/>
<path d="M82.0128 84.0081C78.6253 84.0081 76.1862 86.6141 76.1862 89.8496C76.1862 93.0848 78.5801 95.5788 82.0579 95.5788C84.4741 95.5788 85.9045 94.8631 86.8077 93.6947C87.3587 92.7376 86.0638 91.5686 84.9084 92.2378C83.8852 92.9327 83.187 92.8378 82.1257 92.8378C80.8382 92.8378 79.7092 91.9614 79.5511 90.591H86.7663C87.2179 90.591 87.3311 90.3438 87.3311 90.0742V89.4677C87.3311 86.6591 85.4906 84.0081 82.0128 84.0081ZM84.4516 88.5686H79.6188C79.935 87.3556 80.9286 86.6141 82.0353 86.6141C83.0964 86.6141 84.158 87.2432 84.4516 88.5686Z" fill="white"/>
<defs>
<linearGradient id="paint0_linear_5_617" x1="76.7925" y1="20.0392" x2="112.233" y2="58.4181" gradientUnits="userSpaceOnUse">
<stop stop-color="white"/>
<stop offset="0.132" stop-color="white"/>
<stop offset="0.315" stop-color="white"/>
<stop offset="0.667" stop-color="white"/>
<stop offset="1" stop-color="white"/>
</linearGradient>
<linearGradient id="paint1_linear_5_617" x1="47.7899" y1="61.1427" x2="48.0818" y2="36.992" gradientUnits="userSpaceOnUse">
<stop stop-color="white"/>
<stop offset="1" stop-color="white"/>
</linearGradient>
<linearGradient id="paint2_linear_5_617" x1="77.7328" y1="14.0121" x2="116.735" y2="14.7585" gradientUnits="userSpaceOnUse">
<stop stop-color="white"/>
<stop offset="0.198" stop-color="white"/>
<stop offset="1" stop-color="white"/>
</linearGradient>
<linearGradient id="paint3_linear_5_617" x1="118.871" y1="28.7337" x2="122.482" y2="21.6281" gradientUnits="userSpaceOnUse">
<stop stop-color="white"/>
<stop offset="0.854" stop-color="white"/>
<stop offset="1" stop-color="white"/>
</linearGradient>
<linearGradient id="paint4_linear_5_617" x1="114.867" y1="32.6995" x2="84.9214" y2="34.114" gradientUnits="userSpaceOnUse">
<stop stop-color="white"/>
<stop offset="1" stop-color="white"/>
</linearGradient>
</defs>
</svg>
