<svg width="159" height="80" viewBox="0 0 159 80" fill="none" xmlns="http://www.w3.org/2000/svg">
<g clip-path="url(#clip0_39_38)">
<path d="M9.71795 3.06337L3.27686 9.49426L22.3019 28.4892L28.743 22.0583L9.71795 3.06337Z" stroke="white" stroke-width="3.336" stroke-miterlimit="10"/>
<path d="M3.30647 22.077L9.74756 28.5079L28.7726 9.513L22.3315 3.08211L3.30647 22.077Z" stroke="white" stroke-width="3.336" stroke-miterlimit="10"/>
<path d="M50.51 17.8211V42.3264H46.9254V17.8211L37.521 17.8632V14.6632H59.9144V17.8632L50.51 17.8211Z" fill="white"/>
<path d="M63.8787 42.3264V14.6632H82.6031V17.8632L67.4211 17.8211V26.4527L79.8197 26.4106V29.5685L67.4211 29.5264V39.2106L82.7296 39.1685V42.3685H63.8787V42.3264Z" fill="white"/>
<path d="M105.503 42.3263L99.261 29.9895H90.8688V42.3684H87.2842V14.4526H98.4598C99.3876 14.4526 100.273 14.4526 101.201 14.579C105.334 15 108.455 17.5263 108.455 21.8632C108.455 25.5263 106.472 28.2632 102.972 29.4421L109.593 42.3263H105.503ZM99.4719 17.4842H90.8688V26.8737H99.0924C102.087 26.8737 104.659 25.4 104.659 22.0737C104.617 18.8737 102.508 17.4842 99.4719 17.4842Z" fill="white"/>
<path d="M131.818 42.3263L125.576 29.9474H117.184V42.3263H113.599V14.4526H124.775C125.703 14.4526 126.588 14.4526 127.516 14.579C131.607 15 134.77 17.5263 134.77 21.8632C134.77 25.5263 132.788 28.2632 129.287 29.4421L135.908 42.3263H131.818ZM125.787 17.4842H117.184V26.8737H125.408C128.402 26.8737 130.974 25.4 130.974 22.0737C130.974 18.8737 128.823 17.4842 125.787 17.4842Z" fill="white"/>
<path d="M140.083 42.3264V14.6632H158.808V17.8632L143.626 17.8211V26.4527L156.025 26.4106V29.5685L143.626 29.5264V39.2106L158.934 39.1685V42.3685H140.083V42.3264Z" fill="white"/>
<path d="M60.5876 77.8105C58.5634 79.2 55.9487 79.3684 53.5871 79.3684H42.1584V51.4948H54.2618C56.7078 51.4948 59.6177 51.9579 61.2624 54.0211C62.2323 55.2421 62.8649 57.0948 62.8649 58.6948C62.8649 62.0632 61.0094 64.2947 57.6778 64.8842C61.4733 65.6421 63.5397 68.3369 63.5397 72.1263C63.5819 74.4842 62.4854 76.4632 60.5876 77.8105ZM54.3883 54.4842H45.7431V63.4948H53.334C56.75 63.4948 59.2803 62.6948 59.2803 58.8211C59.2381 55.6211 57.3826 54.4842 54.3883 54.4842ZM52.9123 66.6105H45.7431V76.2947H53.9666C57.4247 76.2947 59.8285 75.6632 59.8285 71.6632C59.8285 67.1579 56.6235 66.6105 52.9123 66.6105Z" fill="white"/>
<path d="M68.5583 79.3263V51.579H72.1008L72.0586 76.2106L85.8489 76.1685V79.3685H68.5583V79.3263Z" fill="white"/>
<path d="M89.2646 79.3264V51.6632H107.989V54.8632L92.8071 54.8211V63.4527L105.206 63.4106V66.5685L92.8071 66.5264V76.2106L108.116 76.1685V79.3685H89.2646V79.3264Z" fill="white"/>
<path d="M123.846 80C115.96 80 112.586 75.2 112.586 67.9158V51.6211H116.213V67.2843C116.213 68.2106 116.213 69.0948 116.381 70.0211C116.93 74.1895 119.544 76.7579 123.846 76.7579C128.063 76.7579 130.804 74.1474 131.31 70.0211C131.479 68.8 131.437 67.6211 131.437 66.4421V51.6211H135.064V68.2527C135.148 75.3685 131.268 80 123.846 80Z" fill="white"/>
<path d="M139.618 79.3264V51.6632H158.343V54.8632L143.161 54.8211V63.4527L155.559 63.4106V66.5685L143.161 66.5264V76.2106L158.469 76.1685V79.3685H139.618V79.3264Z" fill="white"/>
</g>
<defs>
<clipPath id="clip0_39_38">
<rect width="159" height="80" fill="white"/>
</clipPath>
</defs>
</svg>
